<?xml version="1.0" encoding="UTF-8" standalone="no"?>
<svg
   height="48"
   width="48"
   fill="currentColor"
   style="filter: invert(99%) sepia(43%) saturate(334%) hue-rotate(353deg) brightness(109%) contrast(95%);  "
   version="1.1"
   id="svg4"
   xmlns="http://www.w3.org/2000/svg"
   xmlns:svg="http://www.w3.org/2000/svg">
  <defs
     id="defs8" />
  <path
     d="M6 36v-3h36v3Zm0-10.5v-3h36v3ZM6 15v-3h36v3Z"
     id="path2"
     style="fill:#ffffff;fill-opacity:1" />
  <path
     style="fill:#ffffff;fill-opacity:1;stroke:#ffffff;stroke-width:0.084855;stroke-opacity:0"
     d="M 6.014742,13.474201 V 12 H 24 41.985258 v 1.474201 1.474202 H 24 6.014742 Z"
     id="path513" />
  <path
     style="fill:#ffffff;fill-opacity:1;stroke:#ffffff;stroke-width:0.084855;stroke-opacity:0"
     d="M 6.014742,24 V 22.555283 H 24 41.985258 V 24 25.444717 H 24 6.014742 Z"
     id="path515" />
  <path
     style="fill:#ffffff;fill-opacity:1;stroke:#ffffff;stroke-width:0.084855;stroke-opacity:0"
     d="M 6.014742,13.474201 V 12 H 24 41.985258 v 1.474201 1.474202 H 24 6.014742 Z"
     id="path517" />
  <path
     style="fill:#ffffff;fill-opacity:1;stroke:#ffffff;stroke-width:0.084855;stroke-opacity:0"
     d="M 6.014742,13.474201 V 12 H 24 41.985258 v 1.474201 1.474202 H 24 6.014742 Z"
     id="path519" />
  <path
     style="fill:#ffffff;fill-opacity:1;stroke:#ffffff;stroke-width:0.084855;stroke-opacity:0"
     d="M 6.014742,13.474201 V 12 H 24 41.985258 v 1.474201 1.474202 H 24 6.014742 Z"
     id="path521" />
  <path
     style="fill:#ffffff;fill-opacity:1;stroke:#ffffff;stroke-width:0.084855;stroke-opacity:0"
     d="M 6.014742,13.474201 V 12 H 24 41.985258 v 1.474201 1.474202 H 24 6.014742 Z"
     id="path523" />
  <path
     style="fill:#ffffff;fill-opacity:1;stroke:#ffffff;stroke-width:0.084855;stroke-opacity:0"
     d="M 6.014742,13.474201 V 12 H 24 41.985258 v 1.474201 1.474202 H 24 6.014742 Z"
     id="path525" />
  <path
     style="fill:#ffffff;fill-opacity:1;stroke:#ffffff;stroke-width:0.084855;stroke-opacity:0"
     d="M 6.014742,24 V 22.555283 H 24 41.985258 V 24 25.444717 H 24 6.014742 Z"
     id="path527" />
  <path
     style="fill:#ffffff;fill-opacity:1;stroke:#ffffff;stroke-width:0.084855;stroke-opacity:0"
     d="M 6.014742,24 V 22.555283 H 24 41.985258 V 24 25.444717 H 24 6.014742 Z"
     id="path529" />
  <path
     style="fill:#ffffff;fill-opacity:1;stroke:#ffffff;stroke-width:0.084855;stroke-opacity:0"
     d="M 6.014742,34.525799 V 33.051597 H 24 41.985258 V 34.525799 36 H 24 6.014742 Z"
     id="path531" />
  <path
     style="fill:#ffffff;fill-opacity:1;stroke:#ffffff;stroke-width:0.084855;stroke-opacity:0"
     d="M 6.014742,34.525799 V 33.051597 H 24 41.985258 V 34.525799 36 H 24 6.014742 Z"
     id="path533" />
  <path
     style="fill:#ffffff;fill-opacity:1;stroke:#ffffff;stroke-width:0.084855;stroke-opacity:0"
     d="M 6.014742,13.474201 V 12 H 24 41.985258 v 1.474201 1.474202 H 24 6.014742 Z"
     id="path535" />
</svg>
