<?xml version="1.0" encoding="utf-8"?>
<!-- Generator: Adobe Illustrator 15.0.0, SVG Export Plug-In . SVG Version: 6.00 Build 0)  -->
<!DOCTYPE svg PUBLIC "-//W3C//DTD SVG 1.1//EN" "http://www.w3.org/Graphics/SVG/1.1/DTD/svg11.dtd">
<svg version="1.1" id="Layer_1" xmlns="http://www.w3.org/2000/svg" xmlns:xlink="http://www.w3.org/1999/xlink" x="0px" y="0px"
	 width="140px" height="140px" viewBox="0 0 140 140" enable-background="new 0 0 140 140" xml:space="preserve">
<title>Untitled 8</title>
<desc>Created with Sketch.</desc>
<g id="Page-1">
	<g id="polyworks-inspector">
		<path id="Path" fill="#55707D" d="M0.42,70.25c0,38.5,31.21,69.71,69.71,69.71c38.5,0,69.71-31.21,69.71-69.71
			S108.63,0.54,70.13,0.54C31.63,0.54,0.42,31.75,0.42,70.25L0.42,70.25z"/>
		<path id="Path_1_" fill="#FFFFFF" d="M70.13,4.89c36.098,0,65.36,29.263,65.36,65.36c0,36.098-29.263,65.359-65.36,65.359
			c-36.097,0-65.36-29.262-65.36-65.359C4.775,34.155,34.035,4.896,70.13,4.89z"/>
		<path id="Path_2_" fill="#FF8D00" d="M70.13,21.25c-10.313,0.044-19.104,7.49-20.845,17.656S53.358,59.018,63.07,62.49h0.14
			c0.355,0.131,0.538,0.523,0.41,0.88v0.08l-21,54.43c-0.185,0.368-0.52,0.639-0.919,0.74c-0.399,0.102-0.823,0.024-1.161-0.21l0,0
			C18.962,105.167,8.813,79.198,15.694,54.833c6.88-24.364,29.114-41.189,54.431-41.189s47.551,16.825,54.432,41.189
			c6.88,24.365-3.27,50.333-24.847,63.577l0,0c-0.339,0.234-0.762,0.312-1.161,0.21c-0.398-0.102-0.734-0.372-0.919-0.74l-21-54.43
			v-0.08c-0.128-0.356,0.056-0.749,0.41-0.88h0.14c9.71-3.472,15.523-13.416,13.786-23.58S80.441,21.299,70.13,21.25L70.13,21.25z"
			/>
	</g>
</g>
</svg>
