<svg xmlns="http://www.w3.org/2000/svg" xmlns:xlink="http://www.w3.org/1999/xlink" version="1.1" width="1000" height="1000" viewBox="0 0 1000 1000" xml:space="preserve">
<desc>Created with Fabric.js 3.5.0</desc>
<defs>
</defs>
<rect x="0" y="0" width="100%" height="100%" fill="rgba(255,255,255,0)"/>
<g transform="matrix(28.4091 0 0 28.4091 500.0001 500.0001)" id="846821">
<g style="" vector-effect="non-scaling-stroke">
		<g transform="matrix(1 0 0 1 0 0)">
<path style="stroke: none; stroke-width: 1; stroke-dasharray: none; stroke-linecap: butt; stroke-dashoffset: 0; stroke-linejoin: miter; stroke-miterlimit: 4; is-custom-font: none; font-file-url: none; fill: rgb(255,255,255); fill-rule: nonzero; opacity: 1;" transform=" translate(-16, -16)" d="M 16 30 a 1 1 0 0 0 0.62 -0.22 C 17 29.44 27 21.38 27 13 A 11 11 0 0 0 5 13 c 0 8.38 10 16.44 10.38 16.78 A 1 1 0 0 0 16 30 Z M 7 13 a 9 9 0 0 1 18 0 c 0 6.3 -6.87 12.81 -9 14.69 C 13.87 25.81 7 19.3 7 13 Z" stroke-linecap="round"/>
</g>
		<g transform="matrix(1 0 0 1 0 -3)">
<path style="stroke: none; stroke-width: 1; stroke-dasharray: none; stroke-linecap: butt; stroke-dashoffset: 0; stroke-linejoin: miter; stroke-miterlimit: 4; is-custom-font: none; font-file-url: none; fill: rgb(255,255,255); fill-rule: nonzero; opacity: 1;" transform=" translate(-16, -13)" d="M 21 13 a 5 5 0 1 0 -5 5 A 5 5 0 0 0 21 13 Z m -8 0 a 3 3 0 1 1 3 3 A 3 3 0 0 1 13 13 Z" stroke-linecap="round"/>
</g>
</g>
</g>
</svg>